<mxfile host="app.diagrams.net" agent="Mozilla/5.0 (Windows NT 10.0; Win64; x64) AppleWebKit/537.36 (KHTML, like Gecko) Chrome/130.0.0.0 Safari/537.36 OPR/115.0.0.0" version="25.0.3">
  <diagram name="Страница — 1" id="jgulgiTFwpt-Dps_44p0">
    <mxGraphModel dx="1824" dy="639" grid="1" gridSize="10" guides="1" tooltips="1" connect="1" arrows="1" fold="1" page="1" pageScale="1" pageWidth="827" pageHeight="1169" math="0" shadow="0">
      <root>
        <mxCell id="0" />
        <mxCell id="1" parent="0" />
        <mxCell id="JGeG2VITqgGDx38EZlLY-16" style="rounded=0;orthogonalLoop=1;jettySize=auto;html=1;entryX=1;entryY=0.5;entryDx=0;entryDy=0;endArrow=none;endFill=0;" edge="1" parent="1" target="JGeG2VITqgGDx38EZlLY-9">
          <mxGeometry relative="1" as="geometry">
            <mxPoint x="40" y="330" as="sourcePoint" />
          </mxGeometry>
        </mxCell>
        <mxCell id="JGeG2VITqgGDx38EZlLY-17" style="rounded=0;orthogonalLoop=1;jettySize=auto;html=1;entryX=1;entryY=1;entryDx=0;entryDy=0;endArrow=none;endFill=0;" edge="1" parent="1" target="JGeG2VITqgGDx38EZlLY-8">
          <mxGeometry relative="1" as="geometry">
            <mxPoint x="50" y="280" as="sourcePoint" />
          </mxGeometry>
        </mxCell>
        <mxCell id="JGeG2VITqgGDx38EZlLY-18" style="rounded=0;orthogonalLoop=1;jettySize=auto;html=1;entryX=0;entryY=1;entryDx=0;entryDy=0;endArrow=none;endFill=0;" edge="1" parent="1" target="JGeG2VITqgGDx38EZlLY-7">
          <mxGeometry relative="1" as="geometry">
            <mxPoint x="90" y="280" as="sourcePoint" />
          </mxGeometry>
        </mxCell>
        <mxCell id="JGeG2VITqgGDx38EZlLY-19" style="rounded=0;orthogonalLoop=1;jettySize=auto;html=1;entryX=-0.022;entryY=0.498;entryDx=0;entryDy=0;endArrow=none;endFill=0;entryPerimeter=0;" edge="1" parent="1" target="JGeG2VITqgGDx38EZlLY-6">
          <mxGeometry relative="1" as="geometry">
            <mxPoint x="100" y="320" as="sourcePoint" />
          </mxGeometry>
        </mxCell>
        <mxCell id="JGeG2VITqgGDx38EZlLY-20" style="rounded=0;orthogonalLoop=1;jettySize=auto;html=1;entryX=0;entryY=0;entryDx=0;entryDy=0;endArrow=none;endFill=0;" edge="1" parent="1" target="JGeG2VITqgGDx38EZlLY-4">
          <mxGeometry relative="1" as="geometry">
            <mxPoint x="100" y="360" as="sourcePoint" />
          </mxGeometry>
        </mxCell>
        <mxCell id="JGeG2VITqgGDx38EZlLY-21" style="rounded=0;orthogonalLoop=1;jettySize=auto;html=1;entryX=0.5;entryY=0;entryDx=0;entryDy=0;endArrow=none;endFill=0;" edge="1" parent="1" target="JGeG2VITqgGDx38EZlLY-3">
          <mxGeometry relative="1" as="geometry">
            <mxPoint x="40" y="360" as="sourcePoint" />
          </mxGeometry>
        </mxCell>
        <mxCell id="JGeG2VITqgGDx38EZlLY-1" value="client" style="shape=umlActor;verticalLabelPosition=bottom;verticalAlign=top;html=1;outlineConnect=0;" vertex="1" parent="1">
          <mxGeometry x="50" y="290" width="40" height="80" as="geometry" />
        </mxCell>
        <mxCell id="JGeG2VITqgGDx38EZlLY-22" style="rounded=0;orthogonalLoop=1;jettySize=auto;html=1;entryX=1;entryY=0;entryDx=0;entryDy=0;endArrow=none;endFill=0;" edge="1" parent="1" target="JGeG2VITqgGDx38EZlLY-7">
          <mxGeometry relative="1" as="geometry">
            <mxPoint x="270" y="180" as="sourcePoint" />
          </mxGeometry>
        </mxCell>
        <mxCell id="JGeG2VITqgGDx38EZlLY-23" style="rounded=0;orthogonalLoop=1;jettySize=auto;html=1;entryX=0.5;entryY=0;entryDx=0;entryDy=0;endArrow=none;endFill=0;" edge="1" parent="1" target="JGeG2VITqgGDx38EZlLY-6">
          <mxGeometry relative="1" as="geometry">
            <mxPoint x="300" y="230" as="sourcePoint" />
          </mxGeometry>
        </mxCell>
        <mxCell id="JGeG2VITqgGDx38EZlLY-24" style="rounded=0;orthogonalLoop=1;jettySize=auto;html=1;endArrow=none;endFill=0;" edge="1" parent="1" target="JGeG2VITqgGDx38EZlLY-10">
          <mxGeometry relative="1" as="geometry">
            <mxPoint x="330" y="180" as="sourcePoint" />
          </mxGeometry>
        </mxCell>
        <mxCell id="JGeG2VITqgGDx38EZlLY-25" style="rounded=0;orthogonalLoop=1;jettySize=auto;html=1;entryX=0;entryY=0.5;entryDx=0;entryDy=0;endArrow=none;endFill=0;" edge="1" parent="1" target="JGeG2VITqgGDx38EZlLY-11">
          <mxGeometry relative="1" as="geometry">
            <mxPoint x="330" y="150" as="sourcePoint" />
          </mxGeometry>
        </mxCell>
        <mxCell id="JGeG2VITqgGDx38EZlLY-26" style="rounded=0;orthogonalLoop=1;jettySize=auto;html=1;entryX=0.5;entryY=1;entryDx=0;entryDy=0;endArrow=none;endFill=0;" edge="1" parent="1" target="JGeG2VITqgGDx38EZlLY-12">
          <mxGeometry relative="1" as="geometry">
            <mxPoint x="330" y="120" as="sourcePoint" />
          </mxGeometry>
        </mxCell>
        <mxCell id="JGeG2VITqgGDx38EZlLY-27" style="rounded=0;orthogonalLoop=1;jettySize=auto;html=1;entryX=1;entryY=0.5;entryDx=0;entryDy=0;endArrow=none;endFill=0;" edge="1" parent="1" target="JGeG2VITqgGDx38EZlLY-15">
          <mxGeometry relative="1" as="geometry">
            <mxPoint x="270" y="150" as="sourcePoint" />
          </mxGeometry>
        </mxCell>
        <mxCell id="JGeG2VITqgGDx38EZlLY-28" style="rounded=0;orthogonalLoop=1;jettySize=auto;html=1;entryX=0.5;entryY=1;entryDx=0;entryDy=0;endArrow=none;endFill=0;" edge="1" parent="1" target="JGeG2VITqgGDx38EZlLY-13">
          <mxGeometry relative="1" as="geometry">
            <mxPoint x="310" y="110" as="sourcePoint" />
          </mxGeometry>
        </mxCell>
        <mxCell id="JGeG2VITqgGDx38EZlLY-29" style="rounded=0;orthogonalLoop=1;jettySize=auto;html=1;entryX=1;entryY=1;entryDx=0;entryDy=0;endArrow=none;endFill=0;" edge="1" parent="1" target="JGeG2VITqgGDx38EZlLY-14">
          <mxGeometry relative="1" as="geometry">
            <mxPoint x="270" y="120" as="sourcePoint" />
          </mxGeometry>
        </mxCell>
        <mxCell id="JGeG2VITqgGDx38EZlLY-2" value="administrator" style="shape=umlActor;verticalLabelPosition=bottom;verticalAlign=top;html=1;outlineConnect=0;" vertex="1" parent="1">
          <mxGeometry x="280" y="120" width="40" height="80" as="geometry" />
        </mxCell>
        <mxCell id="JGeG2VITqgGDx38EZlLY-3" value="Просмотр статуса заказа" style="ellipse;whiteSpace=wrap;html=1;" vertex="1" parent="1">
          <mxGeometry x="-60" y="410" width="120" height="60" as="geometry" />
        </mxCell>
        <mxCell id="JGeG2VITqgGDx38EZlLY-4" value="Оформление заказа" style="ellipse;whiteSpace=wrap;html=1;" vertex="1" parent="1">
          <mxGeometry x="110" y="370" width="120" height="60" as="geometry" />
        </mxCell>
        <mxCell id="JGeG2VITqgGDx38EZlLY-6" value="Авторизация" style="ellipse;whiteSpace=wrap;html=1;" vertex="1" parent="1">
          <mxGeometry x="180" y="290" width="120" height="60" as="geometry" />
        </mxCell>
        <mxCell id="JGeG2VITqgGDx38EZlLY-7" value="Просмотр меню" style="ellipse;whiteSpace=wrap;html=1;" vertex="1" parent="1">
          <mxGeometry x="120" y="200" width="120" height="60" as="geometry" />
        </mxCell>
        <mxCell id="JGeG2VITqgGDx38EZlLY-8" value="Добавление комментариев" style="ellipse;whiteSpace=wrap;html=1;" vertex="1" parent="1">
          <mxGeometry x="-80" y="200" width="120" height="60" as="geometry" />
        </mxCell>
        <mxCell id="JGeG2VITqgGDx38EZlLY-9" value="Бронирование столов" style="ellipse;whiteSpace=wrap;html=1;" vertex="1" parent="1">
          <mxGeometry x="-130" y="300" width="120" height="60" as="geometry" />
        </mxCell>
        <mxCell id="JGeG2VITqgGDx38EZlLY-10" value="Добавление блюд" style="ellipse;whiteSpace=wrap;html=1;" vertex="1" parent="1">
          <mxGeometry x="390" y="220" width="120" height="60" as="geometry" />
        </mxCell>
        <mxCell id="JGeG2VITqgGDx38EZlLY-11" value="Удаление блюд" style="ellipse;whiteSpace=wrap;html=1;" vertex="1" parent="1">
          <mxGeometry x="440" y="120" width="120" height="60" as="geometry" />
        </mxCell>
        <mxCell id="JGeG2VITqgGDx38EZlLY-12" value="Добавление пользователей" style="ellipse;whiteSpace=wrap;html=1;" vertex="1" parent="1">
          <mxGeometry x="400" y="20" width="120" height="60" as="geometry" />
        </mxCell>
        <mxCell id="JGeG2VITqgGDx38EZlLY-13" value="Удаление пользователей" style="ellipse;whiteSpace=wrap;html=1;" vertex="1" parent="1">
          <mxGeometry x="270" y="10" width="120" height="60" as="geometry" />
        </mxCell>
        <mxCell id="JGeG2VITqgGDx38EZlLY-14" value="Подтверждение заказа" style="ellipse;whiteSpace=wrap;html=1;" vertex="1" parent="1">
          <mxGeometry x="110" y="50" width="120" height="60" as="geometry" />
        </mxCell>
        <mxCell id="JGeG2VITqgGDx38EZlLY-15" value="Смена языка приложения" style="ellipse;whiteSpace=wrap;html=1;" vertex="1" parent="1">
          <mxGeometry x="50" y="120" width="120" height="60" as="geometry" />
        </mxCell>
      </root>
    </mxGraphModel>
  </diagram>
</mxfile>
